<?xml version="1.0" standalone="no"?>
<!DOCTYPE svg PUBLIC "-//W3C//DTD SVG 20010904//EN"
 "http://www.w3.org/TR/2001/REC-SVG-20010904/DTD/svg10.dtd">
<svg version="1.0" xmlns="http://www.w3.org/2000/svg"
 width="30pt" height="26" viewBox="0 0 2400.000000 2008.000000"
 preserveAspectRatio="xMidYMid meet">
<metadata>
Created by potrace 1.16, written by Peter Selinger 2001-2019
</metadata>
<g transform="translate(0.000000,2008.000000) scale(0.100000,-0.100000)"
fill="#000000" stroke="none">
<path d="M2108 19689 c-353 -34 -725 -185 -1003 -407 -559 -447 -826 -1178
-684 -1877 56 -275 189 -568 358 -790 69 -90 236 -260 326 -330 289 -226 623
-364 980 -405 126 -14 19704 -14 19830 0 268 31 551 126 768 256 269 163 514
410 671 676 237 404 319 893 225 1353 -93 458 -361 880 -730 1152 -257 189
-510 297 -849 360 -91 17 -553 18 -9950 19 -5420 1 -9894 -2 -9942 -7z"/>
<path d="M2170 11950 c-687 -46 -1287 -449 -1590 -1065 -363 -740 -212 -1631
374 -2208 155 -153 314 -264 520 -362 189 -91 354 -141 559 -170 156 -22
19780 -22 19936 0 722 103 1318 597 1548 1283 132 396 133 823 2 1217 -96 288
-249 536 -463 751 -293 292 -646 470 -1077 541 -98 17 -673 18 -9904 19 -5390
0 -9847 -2 -9905 -6z"/>
<path d="M2030 4194 c-322 -47 -643 -180 -893 -371 -92 -70 -271 -247 -342
-338 -398 -509 -516 -1175 -315 -1785 94 -289 249 -540 464 -756 326 -325 736
-513 1206 -554 155 -13 19539 -13 19701 0 692 57 1284 463 1579 1083 328 691
219 1499 -283 2082 -159 185 -351 334 -577 448 -163 82 -306 133 -490 174
l-125 28 -9915 1 c-8393 2 -9930 0 -10010 -12z"/>
</g>
</svg>
