<?xml version="1.0" standalone="no"?>
<!DOCTYPE svg PUBLIC "-//W3C//DTD SVG 20010904//EN"
 "http://www.w3.org/TR/2001/REC-SVG-20010904/DTD/svg10.dtd">
<svg version="1.0" xmlns="http://www.w3.org/2000/svg"
 width="35pt" height="35pt" viewBox="0 0 512.000000 512.000000"
 preserveAspectRatio="xMidYMid meet">
<metadata>
Created by potrace 1.16, written by Peter Selinger 2001-2019
</metadata>
<g transform="translate(0.000000,512.000000) scale(0.100000,-0.100000)"
fill="#fff" stroke="none">
<path d="M2285 5101 c-195 -71 -418 -232 -520 -375 -110 -157 -129 -230 -121
-476 3 -102 11 -222 18 -267 l14 -81 -33 -36 c-31 -34 -33 -39 -33 -113 0
-100 29 -216 79 -318 22 -44 55 -132 75 -195 41 -127 100 -253 172 -363 61
-91 231 -261 306 -306 275 -161 535 -121 778 119 136 134 246 318 316 525 19
56 34 109 34 116 0 7 20 54 44 104 53 107 75 187 83 300 l6 82 -37 41 -37 41
16 113 c37 265 30 455 -22 568 -36 77 -183 219 -294 285 -348 205 -677 297
-844 236z"/>
<path d="M1959 2574 c-22 -27 -241 -168 -336 -217 -110 -56 -248 -115 -392
-166 -192 -69 -305 -136 -412 -248 -150 -155 -245 -369 -295 -663 -24 -142
-29 -432 -10 -609 16 -149 46 -312 66 -358 11 -27 43 -41 216 -98 279 -92 623
-153 1114 -197 198 -18 1102 -18 1300 0 552 50 943 126 1240 240 87 34 90 38
119 172 69 313 65 729 -8 1016 -67 261 -188 457 -366 591 -79 60 -167 103
-322 159 -292 106 -584 260 -706 373 -32 29 -21 34 -139 -62 -119 -97 -257
-164 -380 -184 -88 -15 -103 -15 -184 0 -137 25 -271 95 -411 214 -34 29 -66
53 -71 53 -5 0 -16 -7 -23 -16z"/>
</g>
</svg>
