<?xml version="1.0" standalone="no"?>
<!DOCTYPE svg PUBLIC "-//W3C//DTD SVG 20010904//EN"
 "http://www.w3.org/TR/2001/REC-SVG-20010904/DTD/svg10.dtd">
<svg version="1.0" xmlns="http://www.w3.org/2000/svg"
 width="40pt" height="40pt" viewBox="0 0 218.000000 217.000000"
 preserveAspectRatio="xMidYMid meet">
<metadata>
Created by potrace 1.16, written by Peter Selinger 2001-2019
</metadata>
<g transform="translate(0.000000,217.000000) scale(0.100000,-0.100000)"
fill="#000000" stroke="none">
<path d="M989 2149 c-478 -51 -841 -383 -941 -859 -28 -132 -21 -333 15 -471
78 -297 279 -545 554 -684 623 -313 1372 55 1515 745 26 126 21 354 -11 474
-91 342 -340 616 -669 736 -140 51 -323 75 -463 59z m-342 -729 c53 1 63 -2
73 -20 15 -27 6 -68 -35 -155 -66 -144 -189 -265 -220 -216 -11 19 58 182 71
168 3 -2 -5 -24 -16 -48 -23 -52 -25 -79 -6 -79 18 0 80 129 96 201 13 58 4
99 -22 99 -23 0 -115 -108 -150 -177 -69 -131 -102 -276 -79 -346 15 -44 40
-53 85 -32 55 26 166 151 206 230 43 86 70 104 128 87 25 -8 43 -20 47 -32 4
-12 15 -20 28 -20 12 0 29 -5 37 -10 13 -8 13 -13 -3 -37 -26 -41 -58 -115
-54 -126 6 -19 87 91 108 149 34 91 45 104 90 104 53 0 57 -16 20 -76 -51 -82
-89 -214 -62 -214 11 0 72 74 146 179 53 75 65 86 94 89 58 6 62 0 40 -62 -19
-56 -25 -116 -11 -116 15 0 65 57 90 105 36 66 66 83 120 67 25 -8 43 -20 47
-32 4 -12 15 -20 28 -20 12 0 29 -5 37 -10 13 -8 13 -13 -3 -37 -29 -44 -59
-113 -55 -125 7 -20 75 75 97 135 40 108 47 117 92 117 45 0 61 -20 36 -48
-20 -22 -67 -122 -67 -142 0 -8 14 10 31 40 47 85 65 100 121 100 54 0 60 -12
28 -53 -27 -35 -62 -117 -58 -139 2 -14 18 -2 63 51 56 68 75 83 75 62 0 -6
-33 -58 -72 -118 -66 -97 -76 -108 -103 -108 l-30 0 -3 80 -3 80 -30 -70 c-17
-38 -34 -80 -39 -92 -11 -27 -45 -30 -58 -5 -6 9 -13 36 -17 60 l-7 43 -37
-53 c-27 -39 -44 -54 -64 -56 -26 -3 -27 -1 -27 42 0 25 -3 46 -7 46 -5 0 -20
-21 -35 -45 -29 -49 -67 -66 -94 -44 -13 11 -15 28 -12 91 l5 78 -24 -22 c-12
-12 -23 -32 -23 -45 0 -75 -57 -133 -131 -133 -41 0 -51 4 -65 26 -16 24 -16
27 3 52 18 24 47 47 98 77 14 9 15 19 8 70 l-8 60 -26 -35 c-14 -19 -56 -77
-93 -128 -38 -51 -78 -98 -89 -104 -31 -16 -47 14 -47 90 l0 65 -50 -71 c-40
-56 -56 -72 -75 -72 -23 0 -25 3 -25 52 l0 53 -34 -51 c-44 -65 -71 -78 -100
-48 -11 10 -16 34 -16 70 l0 55 -62 -66 c-80 -86 -133 -117 -190 -113 -40 3
-45 6 -66 48 -22 41 -23 54 -18 145 10 199 100 414 199 476 24 15 42 18 72 14
22 -3 68 -5 102 -5z"/>
</g>
</svg>
