<?xml version="1.0" standalone="no"?>
<!DOCTYPE svg PUBLIC "-//W3C//DTD SVG 20010904//EN"
 "http://www.w3.org/TR/2001/REC-SVG-20010904/DTD/svg10.dtd">
<svg version="1.0" xmlns="http://www.w3.org/2000/svg"
 width="100pt" height="48pt" viewBox="0 0 910.000000 388.000000"
 preserveAspectRatio="xMidYMid meet">
<metadata>
Created by potrace 1.16, written by Peter Selinger 2001-2019
</metadata>
<g transform="translate(0.000000,388.000000) scale(0.100000,-0.100000)"
fill="#000000" stroke="none">
<path d="M1705 3854 c-547 -82 -992 -341 -1300 -759 -161 -217 -273 -467 -340
-760 -46 -196 -45 -566 1 -795 70 -348 260 -696 523 -958 568 -565 1399 -721
2124 -397 539 241 935 710 1082 1280 46 182 59 316 52 554 -7 233 -27 357 -85
527 -224 658 -761 1137 -1436 1280 -107 23 -149 26 -356 29 -129 2 -248 1
-265 -1z m-538 -1314 c62 0 75 -3 93 -22 37 -39 25 -120 -37 -256 -117 -256
-298 -461 -388 -438 -25 6 -27 10 -21 44 12 79 104 278 119 262 3 -3 -8 -39
-24 -80 -31 -79 -36 -124 -17 -136 16 -10 43 26 89 119 109 217 133 417 48
417 -23 0 -152 -139 -213 -230 -135 -201 -227 -515 -202 -685 9 -57 50 -105
91 -105 98 0 324 224 442 438 69 127 107 162 175 162 44 -1 110 -31 136 -64
12 -16 42 -34 74 -44 31 -10 54 -24 56 -33 1 -9 -15 -47 -37 -85 -44 -78 -79
-169 -68 -180 11 -11 51 31 100 105 52 77 73 117 117 224 39 95 65 117 134
117 52 0 76 -12 76 -38 0 -8 -29 -73 -65 -146 -83 -169 -124 -313 -94 -332 18
-10 73 51 197 220 159 216 187 246 242 256 98 19 106 1 65 -139 -26 -87 -32
-165 -16 -176 19 -11 83 59 155 169 43 65 86 118 104 129 61 35 168 9 211 -52
16 -22 33 -33 61 -37 22 -4 47 -12 57 -19 16 -12 16 -16 -10 -61 -41 -71 -85
-165 -93 -196 -4 -21 -2 -28 8 -28 34 0 135 166 194 319 39 102 68 131 132
131 34 0 57 -6 73 -19 l23 -19 -26 -39 c-59 -90 -135 -263 -114 -263 3 0 23
30 45 68 90 154 124 182 220 182 91 0 102 -21 50 -96 -63 -91 -122 -253 -93
-254 5 0 57 50 116 112 158 168 156 135 -9 -113 -46 -70 -100 -143 -119 -163
-32 -33 -41 -37 -77 -34 l-42 3 -5 127 c-3 69 -8 129 -11 132 -3 4 -32 -56
-64 -131 -62 -151 -77 -173 -111 -173 -42 0 -60 33 -84 153 l-12 58 -48 -69
c-64 -91 -104 -124 -144 -120 -31 3 -31 3 -36 73 -3 45 -9 70 -17 70 -7 0 -32
-29 -56 -63 -72 -103 -134 -129 -178 -74 -20 26 -21 34 -16 155 4 70 3 127 -2
127 -27 0 -81 -96 -81 -147 -1 -73 -80 -168 -159 -191 -50 -15 -120 -15 -150
1 -14 6 -33 26 -44 44 -16 29 -17 34 -3 60 19 37 67 81 143 132 37 24 65 51
68 64 3 12 -1 62 -8 112 l-12 89 -109 -149 c-243 -332 -293 -378 -331 -305
-10 19 -15 57 -15 112 0 141 -2 142 -85 30 -39 -53 -84 -108 -98 -121 -25 -22
-70 -31 -85 -17 -3 4 -9 43 -12 88 l-5 80 -49 -71 c-78 -115 -126 -144 -175
-103 -23 19 -41 94 -41 176 l0 51 -117 -118 c-164 -164 -220 -197 -328 -197
-64 0 -95 21 -133 93 -26 50 -27 58 -25 183 4 370 157 784 335 910 62 44 62
44 183 39 61 -3 142 -5 182 -5z"/>
<path d="M4940 3512 c-101 -66 -278 -193 -293 -210 -13 -14 -17 -28 -12 -42 7
-23 12 -23 98 -4 59 14 128 -101 192 -322 23 -78 24 -94 14 -142 -6 -29 -30
-92 -55 -140 -49 -97 -158 -252 -178 -252 -25 0 -45 27 -94 125 -48 97 -190
445 -288 709 -47 126 -47 130 -36 184 8 36 8 60 2 66 -14 14 -101 -30 -194
-99 -151 -112 -156 -117 -156 -152 l0 -32 53 6 c46 5 56 2 83 -21 63 -52 142
-241 229 -541 87 -304 170 -525 221 -592 53 -70 115 -29 184 121 20 45 60 109
88 143 66 79 216 206 238 201 10 -2 22 -16 27 -33 22 -71 102 -265 135 -328
45 -87 72 -109 113 -95 21 7 37 25 56 61 66 130 134 225 233 322 55 55 117
123 137 152 l35 51 49 -30 c27 -16 54 -38 59 -48 6 -11 10 -116 10 -245 0
-184 -3 -232 -15 -256 -9 -16 -13 -34 -10 -39 3 -6 49 -10 101 -10 110 0 113
3 90 81 -30 100 -16 418 22 483 12 20 27 32 45 34 25 3 30 -2 52 -52 14 -31
29 -56 34 -56 11 0 111 108 111 121 0 19 27 8 56 -22 l29 -30 3 -220 c2 -170
0 -232 -11 -269 -13 -42 -13 -51 -1 -61 17 -14 190 -8 203 7 4 5 5 140 0 299
-8 306 -16 363 -60 419 -28 36 -74 35 -127 -4 -48 -35 -62 -37 -62 -12 0 22
-85 72 -122 72 -13 0 -53 -20 -88 -45 -35 -25 -69 -45 -75 -45 -7 0 -36 13
-66 30 -67 37 -98 38 -139 4 -17 -15 -33 -24 -36 -22 -2 3 5 25 16 50 37 84
53 177 53 308 0 144 -20 225 -77 314 -37 57 -111 126 -135 126 -24 0 -156 -75
-236 -133 -169 -122 -211 -173 -170 -207 12 -10 22 -6 56 23 103 88 201 90
276 4 100 -114 84 -376 -36 -577 -48 -80 -147 -200 -164 -200 -23 0 -55 43
-92 123 -48 107 -205 499 -271 679 -53 145 -53 147 -42 208 9 51 8 64 -3 71
-19 12 -30 11 -59 -9z"/>
<path d="M6477 3078 c-41 -32 -44 -135 -6 -197 33 -54 76 -38 128 49 21 35 27
83 15 115 -15 37 -103 58 -137 33z"/>
<path d="M6839 3059 c-95 -68 -99 -74 -99 -159 0 -88 -17 -155 -54 -211 -32
-48 -33 -70 -2 -106 23 -28 24 -36 28 -198 3 -162 4 -172 30 -221 42 -80 130
-144 198 -144 36 0 79 20 133 63 53 41 48 68 -14 83 -63 16 -86 30 -103 63
-32 61 -47 256 -25 319 9 26 19 33 79 51 80 25 120 63 120 116 0 56 -22 68
-112 62 -53 -3 -80 -1 -85 6 -5 7 -10 77 -13 157 -6 166 -8 170 -81 119z"/>
<path d="M8175 2774 c-78 -59 -84 -60 -153 -25 -85 43 -102 41 -167 -22 -30
-29 -55 -60 -55 -68 0 -8 15 -23 33 -33 81 -47 77 -32 77 -293 0 -191 -3 -239
-15 -264 -9 -16 -13 -34 -10 -39 9 -14 188 -13 202 1 8 8 6 26 -8 67 -14 42
-19 83 -19 171 0 227 26 342 79 349 30 5 45 -10 60 -57 6 -22 16 -43 22 -47
15 -9 86 62 120 121 18 31 29 64 29 87 0 35 -3 39 -50 63 -66 33 -90 32 -145
-11z"/>
<path d="M8645 2779 c-98 -6 -137 -25 -176 -87 -37 -59 -49 -101 -49 -178 0
-71 24 -116 80 -148 29 -17 58 -22 172 -26 135 -5 137 -5 167 -34 54 -51 40
-134 -30 -180 -54 -36 -117 -48 -179 -35 -65 14 -90 48 -83 113 3 24 0 52 -6
64 -15 29 -65 38 -97 17 -29 -19 -63 -87 -64 -125 0 -39 35 -87 82 -112 38
-20 58 -23 168 -23 121 0 127 1 191 33 142 70 207 158 216 291 5 72 4 78 -22
109 -54 64 -135 77 -276 43 -95 -22 -158 -11 -201 38 -48 53 -30 151 27 151
13 0 78 -16 145 -35 67 -19 129 -35 139 -35 30 0 81 68 81 108 0 11 -7 25 -15
32 -19 16 -166 27 -270 19z"/>
<path d="M7387 2761 c-102 -26 -151 -85 -192 -226 -21 -71 -16 -234 9 -303 32
-90 105 -152 223 -191 126 -42 190 -26 289 73 74 74 99 124 92 184 -4 35 -32
40 -55 11 -81 -101 -133 -139 -188 -139 -80 0 -185 68 -185 118 0 15 4 32 8
38 4 5 52 34 107 64 193 103 285 173 285 216 0 40 -63 117 -120 146 -44 24
-64 28 -129 27 -42 0 -106 -8 -144 -18z m120 -96 c54 -16 103 -61 103 -95 0
-24 -79 -93 -156 -136 -91 -51 -108 -46 -130 40 -13 51 -13 63 1 111 26 91 75
112 182 80z"/>
<path d="M4848 1815 c-98 -34 -229 -126 -344 -240 -114 -112 -171 -200 -212
-322 -22 -68 -26 -95 -26 -218 -1 -125 2 -147 23 -205 100 -267 269 -439 470
-481 85 -18 282 -7 356 20 186 66 364 229 365 334 0 48 -25 43 -92 -18 -75
-68 -183 -122 -258 -130 -39 -5 -91 1 -178 18 -153 31 -202 59 -327 182 -145
144 -180 235 -173 453 4 115 7 133 33 186 59 121 136 168 285 174 154 7 298
-24 385 -81 59 -39 105 -90 105 -116 0 -14 -21 -74 -46 -134 -36 -85 -43 -111
-34 -122 15 -18 45 -4 109 49 24 20 49 36 56 36 45 0 122 131 175 295 35 109
35 147 0 214 -29 57 -42 64 -105 56 -58 -7 -141 7 -314 51 -114 29 -167 29
-253 -1z"/>
<path d="M6325 1385 c-20 -20 -25 -34 -25 -77 0 -31 9 -71 20 -95 26 -59 55
-58 108 2 64 72 65 148 3 180 -43 22 -78 19 -106 -10z"/>
<path d="M5844 1086 c-107 -34 -231 -131 -275 -217 -29 -57 -49 -133 -49 -188
0 -97 51 -230 112 -288 71 -68 130 -70 257 -8 61 30 100 43 113 39 11 -3 38
-24 59 -45 46 -46 59 -45 109 6 34 35 34 36 21 78 -46 151 -51 287 -16 403 24
78 31 84 61 50 l25 -28 -4 -242 c-3 -132 -7 -254 -8 -271 l-4 -30 102 0 c64 0
106 4 114 12 8 8 8 24 0 63 -6 28 -11 144 -11 257 0 383 -43 479 -179 395 -25
-16 -64 -34 -86 -41 -38 -12 -44 -11 -125 28 -91 45 -140 51 -216 27z m62
-166 c131 -44 130 -44 116 -122 -7 -36 -12 -92 -12 -124 0 -80 -14 -125 -50
-159 -25 -24 -38 -29 -78 -28 -123 2 -186 99 -187 291 l0 93 42 40 c23 21 50
39 60 39 10 0 59 -14 109 -30z"/>
<path d="M6693 1090 c-39 -13 -87 -59 -115 -114 -16 -30 -23 -65 -26 -129 l-4
-88 44 -43 c53 -51 74 -56 218 -56 94 0 111 -3 140 -22 93 -63 57 -180 -69
-223 -55 -19 -102 -19 -144 -2 -50 22 -61 42 -59 107 3 63 -10 85 -54 96 -55
14 -122 -80 -110 -154 14 -87 104 -127 275 -120 96 4 112 7 169 37 136 69 202
162 210 291 4 71 3 78 -22 107 -55 65 -146 77 -297 38 -113 -29 -209 22 -209
111 0 45 25 84 54 84 8 0 69 -16 136 -35 67 -19 132 -35 144 -35 54 0 109 109
71 140 -21 17 -302 25 -352 10z"/>
<path d="M7518 1076 c-73 -30 -144 -76 -184 -118 -106 -111 -140 -265 -92
-409 43 -129 108 -198 197 -207 42 -4 61 2 149 43 101 47 102 48 129 30 15
-10 38 -31 51 -46 30 -37 43 -36 86 2 47 41 51 59 26 127 -40 104 -37 308 5
408 l14 33 39 -19 c25 -12 42 -28 46 -44 14 -56 26 -221 26 -367 0 -177 -4
-169 84 -169 87 0 84 -8 88 260 3 267 6 276 81 311 57 25 109 25 133 -2 17
-19 20 -43 24 -238 5 -207 6 -218 30 -261 45 -79 106 -91 153 -28 l20 27 -20
48 c-16 38 -22 80 -27 205 -10 252 -43 378 -110 419 -55 34 -94 24 -229 -59
l-58 -35 -32 30 c-48 47 -107 83 -133 83 -14 0 -32 -12 -46 -30 -12 -17 -31
-30 -43 -30 -12 0 -36 -5 -53 -11 -28 -9 -40 -6 -113 30 -98 49 -153 53 -241
17z m119 -169 c85 -32 88 -34 86 -62 -1 -17 -6 -82 -11 -145 -9 -125 -24 -168
-69 -197 -33 -22 -92 -21 -144 2 -49 23 -82 86 -103 202 -22 115 -9 168 53
221 33 29 66 25 188 -21z"/>
</g>
</svg>
